<?xml version="1.0" encoding="UTF-8" standalone="no"?>
<!-- Created with Inkscape (http://www.inkscape.org/) -->
<svg xmlns:dc="http://purl.org/dc/elements/1.1/" xmlns:cc="http://creativecommons.org/ns#" xmlns:rdf="http://www.w3.org/1999/02/22-rdf-syntax-ns#" xmlns:svg="http://www.w3.org/2000/svg" xmlns="http://www.w3.org/2000/svg" xmlns:xlink="http://www.w3.org/1999/xlink" xmlns:sodipodi="http://sodipodi.sourceforge.net/DTD/sodipodi-0.dtd" xmlns:inkscape="http://www.inkscape.org/namespaces/inkscape" width="35.189583mm" height="36.575962mm" viewBox="0 0 124.6875 129.59987" id="svg5220" version="1.1" inkscape:version="0.92.2 5c3e80d, 2017-08-06" sodipodi:docname="logo_n2i_color_title_2019.svg">
  <defs id="defs5222">
    <linearGradient inkscape:collect="always" id="linearGradient7499">
      <stop style="stop-color:#d20177;stop-opacity:1;" offset="0" id="stop7495"/>
      <stop style="stop-color:#55246f;stop-opacity:1" offset="1" id="stop7497"/>
    </linearGradient>
    <linearGradient inkscape:collect="always" xlink:href="#linearGradient7499" id="linearGradient1502" gradientUnits="userSpaceOnUse" x1="726.50909" y1="49.625771" x2="750.3963" y2="15.238246" gradientTransform="matrix(0.04388647,0.73582721,-0.74281098,0.04349155,-2288.6898,14.296205)"/>
    <linearGradient inkscape:collect="always" xlink:href="#linearGradient7499" id="linearGradient1504" gradientUnits="userSpaceOnUse" x1="726.50909" y1="49.625771" x2="750.3963" y2="15.238246" gradientTransform="matrix(0.04388647,0.73582721,-0.74281098,0.04349155,-2288.6898,14.296205)"/>
    <linearGradient inkscape:collect="always" xlink:href="#linearGradient7499" id="linearGradient1506" gradientUnits="userSpaceOnUse" x1="-801.62738" y1="140.50978" x2="-776.81085" y2="120.842" gradientTransform="matrix(0.042757,-0.73589245,0.74287894,0.04233719,-2288.6898,14.296205)"/>
    <linearGradient inkscape:collect="always" xlink:href="#linearGradient7499" id="linearGradient1508" gradientUnits="userSpaceOnUse" x1="-801.62738" y1="140.50978" x2="-776.81085" y2="120.842" gradientTransform="matrix(0.042757,-0.73589245,0.74287894,0.04233719,-2288.6898,14.296205)"/>
    <linearGradient inkscape:collect="always" xlink:href="#linearGradient7499" id="linearGradient1510" gradientUnits="userSpaceOnUse" x1="-834.875" y1="118.69879" x2="-708.9021" y2="108.92424" gradientTransform="matrix(0.0427737,-0.73589151,0.7428799,0.04232066,-2288.6898,14.296205)"/>
    <linearGradient inkscape:collect="always" xlink:href="#linearGradient7499" id="linearGradient1512" gradientUnits="userSpaceOnUse" x1="-834.875" y1="118.69879" x2="-708.9021" y2="108.92424" gradientTransform="matrix(0.0427737,-0.73589151,0.7428799,0.04232066,-2288.6898,14.296205)"/>
    <linearGradient inkscape:collect="always" xlink:href="#linearGradient7499" id="linearGradient1514" gradientUnits="userSpaceOnUse" gradientTransform="matrix(0.59501093,-0.44262912,0.44687186,0.58938533,-2288.372,13.666605)" x1="-471.9967" y1="685.23663" x2="-487.29163" y2="642.54236"/>
    <linearGradient inkscape:collect="always" xlink:href="#linearGradient7499" id="linearGradient1516" gradientUnits="userSpaceOnUse" gradientTransform="matrix(0.59501093,-0.44262912,0.44687186,0.58938533,-2288.372,13.666605)" x1="-471.9967" y1="685.23663" x2="-487.29163" y2="642.54236"/>
    <linearGradient inkscape:collect="always" xlink:href="#linearGradient7499" id="linearGradient1518" gradientUnits="userSpaceOnUse" x1="-359.49887" y1="556.13641" x2="-464.23065" y2="661.53851" gradientTransform="matrix(0.59501093,-0.44262912,0.44687186,0.58938533,-2288.6898,14.296205)"/>
    <linearGradient inkscape:collect="always" xlink:href="#linearGradient7499" id="linearGradient1520" gradientUnits="userSpaceOnUse" x1="-359.49887" y1="556.13641" x2="-464.23065" y2="661.53851" gradientTransform="matrix(0.59501093,-0.44262912,0.44687186,0.58938533,-2288.6898,14.296205)"/>
    <linearGradient inkscape:collect="always" xlink:href="#linearGradient7499" id="linearGradient1522" gradientUnits="userSpaceOnUse" gradientTransform="matrix(0.71958156,0.18768638,-0.18941829,0.71282813,-2288.9016,14.925804)" x1="232.25146" y1="653.10248" x2="242.03151" y2="684.86652"/>
    <linearGradient inkscape:collect="always" xlink:href="#linearGradient7499" id="linearGradient1524" gradientUnits="userSpaceOnUse" gradientTransform="matrix(0.71958156,0.18768638,-0.18941829,0.71282813,-2288.9016,14.925804)" x1="232.25146" y1="653.10248" x2="242.03151" y2="684.86652"/>
    <linearGradient inkscape:collect="always" xlink:href="#linearGradient7499" id="linearGradient1526" gradientUnits="userSpaceOnUse" gradientTransform="matrix(-0.22482656,0.7029163,-0.71219487,-0.22185895,-2289.0398,14.296205)" x1="739.35199" y1="-333.42569" x2="684.38519" y2="-266.83621"/>
    <linearGradient inkscape:collect="always" xlink:href="#linearGradient7499" id="linearGradient1528" gradientUnits="userSpaceOnUse" gradientTransform="matrix(-0.22482656,0.7029163,-0.71219487,-0.22185895,-2289.0398,14.715938)" x1="739.35199" y1="-333.42569" x2="684.38519" y2="-266.83621"/>
    <linearGradient inkscape:collect="always" xlink:href="#linearGradient7499" id="linearGradient1530" gradientUnits="userSpaceOnUse" gradientTransform="matrix(-0.11872752,-0.72641457,0.73586165,-0.10924176,-2289.1136,15.578071)" x1="-769.89325" y1="-131.62112" x2="-848.28259" y2="-96.664055"/>
    <linearGradient inkscape:collect="always" xlink:href="#linearGradient7499" id="linearGradient1532" gradientUnits="userSpaceOnUse" gradientTransform="matrix(-0.11872752,-0.72766701,0.73586165,-0.10943011,-2289.1136,14.506071)" x1="-769.89325" y1="-131.62112" x2="-848.28259" y2="-96.664055"/>
  </defs>
  <sodipodi:namedview id="base" pagecolor="#ffffff" bordercolor="#666666" borderopacity="1.0" inkscape:pageopacity="0.0" inkscape:pageshadow="2" inkscape:zoom="2.8284272" inkscape:cx="74.232411" inkscape:cy="57.164265" inkscape:document-units="px" inkscape:current-layer="layer2" showgrid="false" inkscape:window-width="1440" inkscape:window-height="856" inkscape:window-x="4" inkscape:window-y="0" inkscape:window-maximized="0" inkscape:snap-global="false" showguides="true" inkscape:pagecheckerboard="true" fit-margin-top="0" fit-margin-left="0" fit-margin-right="0" fit-margin-bottom="0">
    <inkscape:grid type="xygrid" id="grid17998" originx="2317.0986" originy="-407.60887"/>
  </sodipodi:namedview>
  <metadata id="metadata5225">
    <rdf:RDF>
      <cc:Work rdf:about="">
        <dc:format>image/svg+xml</dc:format>
        <dc:type rdf:resource="http://purl.org/dc/dcmitype/StillImage"/>
        <dc:title/>
      </cc:Work>
    </rdf:RDF>
  </metadata>
  <g inkscape:groupmode="layer" id="layer2" inkscape:label="fond" style="display:inline;opacity:1" transform="translate(2317.0986,-515.1535)">
    <path inkscape:connector-curvature="0" id="path1454" d="m -2253.2404,534.33348 -0.4003,0.002 c -14.4028,0.0794 -27.8072,7.30998 -35.6953,19.25479 -7.8881,11.94482 -9.2114,27.0152 -3.5231,40.13162 l 0.1585,0.36424 0.7355,-0.31275 -0.1585,-0.36424 c -5.5827,-12.87259 -4.2845,-27.6603 3.4571,-39.38325 7.7416,-11.72297 20.8945,-18.81925 35.0294,-18.89709 l 0.4017,-0.003 z" style="color:#000000;font-style:normal;font-variant:normal;font-weight:normal;font-stretch:normal;font-size:medium;line-height:normal;font-family:sans-serif;font-variant-ligatures:normal;font-variant-position:normal;font-variant-caps:normal;font-variant-numeric:normal;font-variant-alternates:normal;font-feature-settings:normal;text-indent:0;text-align:start;text-decoration:none;text-decoration-line:none;text-decoration-style:solid;text-decoration-color:#000000;letter-spacing:normal;word-spacing:normal;text-transform:none;writing-mode:lr-tb;direction:ltr;text-orientation:mixed;dominant-baseline:auto;baseline-shift:baseline;text-anchor:start;white-space:normal;shape-padding:0;clip-rule:nonzero;display:inline;overflow:visible;visibility:visible;opacity:1;isolation:auto;mix-blend-mode:normal;color-interpolation:sRGB;color-interpolation-filters:linearRGB;solid-color:#000000;solid-opacity:1;vector-effect:none;fill:url(#linearGradient1502);fill-opacity:0.95631068;fill-rule:nonzero;stroke:none;stroke-width:0.79723412;stroke-linecap:square;stroke-linejoin:round;stroke-miterlimit:4;stroke-dasharray:none;stroke-dashoffset:0;stroke-opacity:1;paint-order:normal;color-rendering:auto;image-rendering:auto;shape-rendering:auto;text-rendering:auto;enable-background:accumulate"/>
    <path inkscape:connector-curvature="0" id="path1456" d="m -2252.7948,536.53269 -0.4002,0.002 c -13.7744,0.0759 -26.5943,6.99154 -34.1382,18.41513 -7.5439,11.42359 -8.8099,25.83642 -3.3698,38.38049 l 0.1585,0.36424 0.7355,-0.31275 -0.1571,-0.36433 c -5.3345,-12.30024 -4.0951,-26.43173 3.3023,-37.63347 7.3974,-11.20175 19.966,-17.98017 33.4724,-18.05455 l 0.4002,-0.003 z" style="color:#000000;font-style:normal;font-variant:normal;font-weight:normal;font-stretch:normal;font-size:medium;line-height:normal;font-family:sans-serif;font-variant-ligatures:normal;font-variant-position:normal;font-variant-caps:normal;font-variant-numeric:normal;font-variant-alternates:normal;font-feature-settings:normal;text-indent:0;text-align:start;text-decoration:none;text-decoration-line:none;text-decoration-style:solid;text-decoration-color:#000000;letter-spacing:normal;word-spacing:normal;text-transform:none;writing-mode:lr-tb;direction:ltr;text-orientation:mixed;dominant-baseline:auto;baseline-shift:baseline;text-anchor:start;white-space:normal;shape-padding:0;clip-rule:nonzero;display:inline;overflow:visible;visibility:visible;opacity:1;isolation:auto;mix-blend-mode:normal;color-interpolation:sRGB;color-interpolation-filters:linearRGB;solid-color:#000000;solid-opacity:1;vector-effect:none;fill:url(#linearGradient1504);fill-opacity:0.95631068;fill-rule:nonzero;stroke:none;stroke-width:0.79723412;stroke-linecap:square;stroke-linejoin:round;stroke-miterlimit:4;stroke-dasharray:none;stroke-dashoffset:0;stroke-opacity:1;paint-order:normal;color-rendering:auto;image-rendering:auto;shape-rendering:auto;text-rendering:auto;enable-background:accumulate"/>
    <path inkscape:connector-curvature="0" id="path1458" d="m -2259.6331,619.96746 0.3993,0.0444 c 14.3144,1.57969 28.4764,-4.05846 37.7127,-15.01399 9.2363,-10.95552 12.3176,-25.77145 8.2071,-39.45395 l -0.1133,-0.37995 -0.7687,0.22585 0.1147,0.38004 c 4.0343,13.42849 1.0097,27.96647 -8.0551,38.71852 -9.0648,10.75205 -22.9611,16.28424 -37.0094,14.73394 l -0.3978,-0.0428 z" style="color:#000000;font-style:normal;font-variant:normal;font-weight:normal;font-stretch:normal;font-size:medium;line-height:normal;font-family:sans-serif;font-variant-ligatures:normal;font-variant-position:normal;font-variant-caps:normal;font-variant-numeric:normal;font-variant-alternates:normal;font-feature-settings:normal;text-indent:0;text-align:start;text-decoration:none;text-decoration-line:none;text-decoration-style:solid;text-decoration-color:#000000;letter-spacing:normal;word-spacing:normal;text-transform:none;writing-mode:lr-tb;direction:ltr;text-orientation:mixed;dominant-baseline:auto;baseline-shift:baseline;text-anchor:start;white-space:normal;shape-padding:0;clip-rule:nonzero;display:inline;overflow:visible;visibility:visible;opacity:1;isolation:auto;mix-blend-mode:normal;color-interpolation:sRGB;color-interpolation-filters:linearRGB;solid-color:#000000;solid-opacity:1;vector-effect:none;fill:url(#linearGradient1506);fill-opacity:0.95631068;fill-rule:nonzero;stroke:none;stroke-width:0.79723412;stroke-linecap:square;stroke-linejoin:round;stroke-miterlimit:4;stroke-dasharray:none;stroke-dashoffset:0;stroke-opacity:1;paint-order:normal;color-rendering:auto;image-rendering:auto;shape-rendering:auto;text-rendering:auto;enable-background:accumulate"/>
    <path inkscape:connector-curvature="0" id="path1460" d="m -2259.8162,617.73195 0.3978,0.0443 c 13.6898,1.51075 27.2343,-3.88185 36.0675,-14.35933 8.8334,-10.47747 11.7807,-24.64689 7.8494,-37.73235 l -0.1147,-0.38003 -0.7673,0.22593 0.1148,0.38004 c 3.8549,12.83145 0.9643,26.72292 -7.6974,36.99692 -8.6618,10.274 -21.9406,15.56065 -35.3642,14.07928 l -0.3977,-0.0443 z" style="color:#000000;font-style:normal;font-variant:normal;font-weight:normal;font-stretch:normal;font-size:medium;line-height:normal;font-family:sans-serif;font-variant-ligatures:normal;font-variant-position:normal;font-variant-caps:normal;font-variant-numeric:normal;font-variant-alternates:normal;font-feature-settings:normal;text-indent:0;text-align:start;text-decoration:none;text-decoration-line:none;text-decoration-style:solid;text-decoration-color:#000000;letter-spacing:normal;word-spacing:normal;text-transform:none;writing-mode:lr-tb;direction:ltr;text-orientation:mixed;dominant-baseline:auto;baseline-shift:baseline;text-anchor:start;white-space:normal;shape-padding:0;clip-rule:nonzero;display:inline;overflow:visible;visibility:visible;opacity:1;isolation:auto;mix-blend-mode:normal;color-interpolation:sRGB;color-interpolation-filters:linearRGB;solid-color:#000000;solid-opacity:1;vector-effect:none;fill:url(#linearGradient1508);fill-opacity:0.95631068;fill-rule:nonzero;stroke:none;stroke-width:0.79723412;stroke-linecap:square;stroke-linejoin:round;stroke-miterlimit:4;stroke-dasharray:none;stroke-dashoffset:0;stroke-opacity:1;paint-order:normal;color-rendering:auto;image-rendering:auto;shape-rendering:auto;text-rendering:auto;enable-background:accumulate"/>
    <path inkscape:connector-curvature="0" id="path1462" d="m -2259.0029,631.58158 0.3977,0.0443 c 26.5589,2.92977 50.7903,-15.27355 55.1161,-41.40353 4.3257,-26.12998 -12.7663,-51.04483 -38.8788,-56.6709 l -0.3926,-0.0844 -0.1702,0.77478 0.3911,0.0843 c 25.7037,5.53798 42.5183,30.04634 38.2602,55.76754 -4.258,25.7212 -28.0932,43.62663 -54.2362,40.74273 l -0.3979,-0.0428 z" style="color:#000000;font-style:normal;font-variant:normal;font-weight:normal;font-stretch:normal;font-size:medium;line-height:normal;font-family:sans-serif;font-variant-ligatures:normal;font-variant-position:normal;font-variant-caps:normal;font-variant-numeric:normal;font-variant-alternates:normal;font-feature-settings:normal;text-indent:0;text-align:start;text-decoration:none;text-decoration-line:none;text-decoration-style:solid;text-decoration-color:#000000;letter-spacing:normal;word-spacing:normal;text-transform:none;writing-mode:lr-tb;direction:ltr;text-orientation:mixed;dominant-baseline:auto;baseline-shift:baseline;text-anchor:start;white-space:normal;shape-padding:0;clip-rule:nonzero;display:inline;overflow:visible;visibility:visible;opacity:1;isolation:auto;mix-blend-mode:normal;color-interpolation:sRGB;color-interpolation-filters:linearRGB;solid-color:#000000;solid-opacity:1;vector-effect:none;fill:url(#linearGradient1510);fill-opacity:1;fill-rule:nonzero;stroke:none;stroke-width:0.79723412;stroke-linecap:square;stroke-linejoin:round;stroke-miterlimit:4;stroke-dasharray:none;stroke-dashoffset:0;stroke-opacity:1;paint-order:normal;color-rendering:auto;image-rendering:auto;shape-rendering:auto;text-rendering:auto;enable-background:accumulate"/>
    <path inkscape:connector-curvature="0" id="path1464" d="m -2258.7943,629.59479 0.3978,0.0443 c 25.1788,2.77754 48.2127,-14.31351 52.6114,-39.03561 4.3986,-24.72208 -11.3496,-48.58248 -35.9699,-54.49929 l -0.389,-0.0943 -0.1889,0.77083 0.389,0.0943 c 24.217,5.81989 39.6971,29.27382 35.3704,53.59127 -4.3266,24.31743 -26.9685,41.11528 -51.7349,38.38325 l -0.3978,-0.0443 z" style="color:#000000;font-style:normal;font-variant:normal;font-weight:normal;font-stretch:normal;font-size:medium;line-height:normal;font-family:sans-serif;font-variant-ligatures:normal;font-variant-position:normal;font-variant-caps:normal;font-variant-numeric:normal;font-variant-alternates:normal;font-feature-settings:normal;text-indent:0;text-align:start;text-decoration:none;text-decoration-line:none;text-decoration-style:solid;text-decoration-color:#000000;letter-spacing:normal;word-spacing:normal;text-transform:none;writing-mode:lr-tb;direction:ltr;text-orientation:mixed;dominant-baseline:auto;baseline-shift:baseline;text-anchor:start;white-space:normal;shape-padding:0;clip-rule:nonzero;display:inline;overflow:visible;visibility:visible;opacity:1;isolation:auto;mix-blend-mode:normal;color-interpolation:sRGB;color-interpolation-filters:linearRGB;solid-color:#000000;solid-opacity:1;vector-effect:none;fill:url(#linearGradient1512);fill-opacity:1;fill-rule:nonzero;stroke:none;stroke-width:0.79723412;stroke-linecap:square;stroke-linejoin:round;stroke-miterlimit:4;stroke-dasharray:none;stroke-dashoffset:0;stroke-opacity:1;paint-order:normal;color-rendering:auto;image-rendering:auto;shape-rendering:auto;text-rendering:auto;enable-background:accumulate"/>
    <path inkscape:connector-curvature="0" id="path1466" d="m -2300.4631,609.54212 0.2226,0.32953 c 6.5343,9.65223 16.2756,16.73347 27.5322,20.01371 l 0.3847,0.11176 0.2256,-0.76199 -0.3847,-0.11176 c -11.0772,-3.22797 -20.6612,-10.19516 -27.0913,-19.69354 l -0.2246,-0.32981 z" style="color:#000000;font-style:normal;font-variant:normal;font-weight:normal;font-stretch:normal;font-size:medium;line-height:normal;font-family:sans-serif;font-variant-ligatures:normal;font-variant-position:normal;font-variant-caps:normal;font-variant-numeric:normal;font-variant-alternates:normal;font-feature-settings:normal;text-indent:0;text-align:start;text-decoration:none;text-decoration-line:none;text-decoration-style:solid;text-decoration-color:#000000;letter-spacing:normal;word-spacing:normal;text-transform:none;writing-mode:lr-tb;direction:ltr;text-orientation:mixed;dominant-baseline:auto;baseline-shift:baseline;text-anchor:start;white-space:normal;shape-padding:0;clip-rule:nonzero;display:inline;overflow:visible;visibility:visible;opacity:1;isolation:auto;mix-blend-mode:normal;color-interpolation:sRGB;color-interpolation-filters:linearRGB;solid-color:#000000;solid-opacity:1;vector-effect:none;fill:url(#linearGradient1514);fill-opacity:0.95631068;fill-rule:nonzero;stroke:none;stroke-width:0.79723412;stroke-linecap:square;stroke-linejoin:round;stroke-miterlimit:4;stroke-dasharray:none;stroke-dashoffset:0;stroke-opacity:1;paint-order:normal;color-rendering:auto;image-rendering:auto;shape-rendering:auto;text-rendering:auto;enable-background:accumulate"/>
    <path inkscape:connector-curvature="0" id="path1468" d="m -2298.7965,608.41758 0.2237,0.32867 c 6.1159,9.03413 15.1724,15.71914 25.6622,18.94007 l 0.3829,0.11666 0.2364,-0.75739 -0.3817,-0.11753 c -10.315,-3.16724 -19.2214,-9.74039 -25.2353,-18.62392 l -0.2226,-0.32952 z" style="color:#000000;font-style:normal;font-variant:normal;font-weight:normal;font-stretch:normal;font-size:medium;line-height:normal;font-family:sans-serif;font-variant-ligatures:normal;font-variant-position:normal;font-variant-caps:normal;font-variant-numeric:normal;font-variant-alternates:normal;font-feature-settings:normal;text-indent:0;text-align:start;text-decoration:none;text-decoration-line:none;text-decoration-style:solid;text-decoration-color:#000000;letter-spacing:normal;word-spacing:normal;text-transform:none;writing-mode:lr-tb;direction:ltr;text-orientation:mixed;dominant-baseline:auto;baseline-shift:baseline;text-anchor:start;white-space:normal;shape-padding:0;clip-rule:nonzero;display:inline;overflow:visible;visibility:visible;opacity:1;isolation:auto;mix-blend-mode:normal;color-interpolation:sRGB;color-interpolation-filters:linearRGB;solid-color:#000000;solid-opacity:1;vector-effect:none;fill:url(#linearGradient1516);fill-opacity:0.95631068;fill-rule:nonzero;stroke:none;stroke-width:0.79723412;stroke-linecap:square;stroke-linejoin:round;stroke-miterlimit:4;stroke-dasharray:none;stroke-dashoffset:0;stroke-opacity:1;paint-order:normal;color-rendering:auto;image-rendering:auto;shape-rendering:auto;text-rendering:auto;enable-background:accumulate"/>
    <path inkscape:connector-curvature="0" id="path1470" d="m -2284.8877,536.87455 c -17.155,12.14465 -25.1122,34.00178 -18.92,54.63987 7.0767,23.58639 30.5107,38.50323 55.1149,35.08373 l 0.3962,-0.0552 -0.1104,-0.78568 -0.397,0.0541 c -24.2177,3.36576 -47.2698,-11.30726 -54.2354,-34.52283 -6.9654,-23.21558 4.2529,-47.98351 26.3933,-58.27275 l 0.3627,-0.16896 -0.3412,-0.71844 -0.3615,0.16809 c -2.8117,1.30669 -5.4508,2.84317 -7.9016,4.57812 z" style="color:#000000;font-style:normal;font-variant:normal;font-weight:normal;font-stretch:normal;font-size:medium;line-height:normal;font-family:sans-serif;font-variant-ligatures:normal;font-variant-position:normal;font-variant-caps:normal;font-variant-numeric:normal;font-variant-alternates:normal;font-feature-settings:normal;text-indent:0;text-align:start;text-decoration:none;text-decoration-line:none;text-decoration-style:solid;text-decoration-color:#000000;letter-spacing:normal;word-spacing:normal;text-transform:none;writing-mode:lr-tb;direction:ltr;text-orientation:mixed;dominant-baseline:auto;baseline-shift:baseline;text-anchor:start;white-space:normal;shape-padding:0;clip-rule:nonzero;display:inline;overflow:visible;visibility:visible;opacity:1;isolation:auto;mix-blend-mode:normal;color-interpolation:sRGB;color-interpolation-filters:linearRGB;solid-color:#000000;solid-opacity:1;vector-effect:none;fill:url(#linearGradient1518);fill-opacity:0.95631068;fill-rule:nonzero;stroke:none;stroke-width:0.79723412;stroke-linecap:square;stroke-linejoin:round;stroke-miterlimit:4;stroke-dasharray:none;stroke-dashoffset:0;stroke-opacity:1;paint-order:normal;color-rendering:auto;image-rendering:auto;shape-rendering:auto;text-rendering:auto;enable-background:accumulate"/>
    <path inkscape:connector-curvature="0" id="path1472" d="m -2283.7993,538.75114 c -16.3488,11.59441 -23.9469,32.41906 -18.095,52.1105 6.6878,22.5045 28.9495,36.81947 52.4282,33.71203 l 0.3967,-0.0521 -0.106,-0.78712 -0.3967,0.0521 c -23.0929,3.05637 -44.9763,-11.01437 -51.5541,-33.14884 -6.5779,-22.13446 4.1173,-45.71173 25.1969,-55.54275 l 0.3627,-0.16895 -0.3415,-0.71643 -0.3626,0.16896 c -2.679,1.2494 -5.193,2.71623 -7.5286,4.37259 z" style="color:#000000;font-style:normal;font-variant:normal;font-weight:normal;font-stretch:normal;font-size:medium;line-height:normal;font-family:sans-serif;font-variant-ligatures:normal;font-variant-position:normal;font-variant-caps:normal;font-variant-numeric:normal;font-variant-alternates:normal;font-feature-settings:normal;text-indent:0;text-align:start;text-decoration:none;text-decoration-line:none;text-decoration-style:solid;text-decoration-color:#000000;letter-spacing:normal;word-spacing:normal;text-transform:none;writing-mode:lr-tb;direction:ltr;text-orientation:mixed;dominant-baseline:auto;baseline-shift:baseline;text-anchor:start;white-space:normal;shape-padding:0;clip-rule:nonzero;display:inline;overflow:visible;visibility:visible;opacity:1;isolation:auto;mix-blend-mode:normal;color-interpolation:sRGB;color-interpolation-filters:linearRGB;solid-color:#000000;solid-opacity:1;vector-effect:none;fill:url(#linearGradient1520);fill-opacity:0.95631068;fill-rule:nonzero;stroke:none;stroke-width:0.79723412;stroke-linecap:square;stroke-linejoin:round;stroke-miterlimit:4;stroke-dasharray:none;stroke-dashoffset:0;stroke-opacity:1;paint-order:normal;color-rendering:auto;image-rendering:auto;shape-rendering:auto;text-rendering:auto;enable-background:accumulate"/>
    <path inkscape:connector-curvature="0" id="path1474" d="m -2234.2562,526.63146 c -9.9024,-2.58504 -20.4541,-2.13185 -30.2124,1.43929 l -0.376,0.13713 0.2782,0.74551 0.3751,-0.13889 c 12.8038,-4.68574 26.996,-3.91789 39.2106,2.12101 l 0.357,0.17796 0.3585,-0.71039 -0.3587,-0.17694 c -3.1031,-1.53413 -6.3315,-2.73299 -9.6323,-3.59468 z" style="color:#000000;font-style:normal;font-variant:normal;font-weight:normal;font-stretch:normal;font-size:medium;line-height:normal;font-family:sans-serif;font-variant-ligatures:normal;font-variant-position:normal;font-variant-caps:normal;font-variant-numeric:normal;font-variant-alternates:normal;font-feature-settings:normal;text-indent:0;text-align:start;text-decoration:none;text-decoration-line:none;text-decoration-style:solid;text-decoration-color:#000000;letter-spacing:normal;word-spacing:normal;text-transform:none;writing-mode:lr-tb;direction:ltr;text-orientation:mixed;dominant-baseline:auto;baseline-shift:baseline;text-anchor:start;white-space:normal;shape-padding:0;clip-rule:nonzero;display:inline;overflow:visible;visibility:visible;opacity:1;isolation:auto;mix-blend-mode:normal;color-interpolation:sRGB;color-interpolation-filters:linearRGB;solid-color:#000000;solid-opacity:1;vector-effect:none;fill:url(#linearGradient1522);fill-opacity:0.95631068;fill-rule:nonzero;stroke:none;stroke-width:0.79723412;stroke-linecap:square;stroke-linejoin:round;stroke-miterlimit:4;stroke-dasharray:none;stroke-dashoffset:0;stroke-opacity:1;paint-order:normal;color-rendering:auto;image-rendering:auto;shape-rendering:auto;text-rendering:auto;enable-background:accumulate"/>
    <path inkscape:connector-curvature="0" id="path1476" d="m -2234.9136,528.6812 c -9.3388,-2.45212 -19.2871,-2.07672 -28.5219,1.20282 l -0.3782,0.13361 0.2702,0.74784 0.3781,-0.13361 c 12.1082,-4.29991 25.4632,-3.52374 36.9813,2.15142 l 0.3588,0.17695 0.3572,-0.71075 -0.3591,-0.17555 c -2.9283,-1.44281 -5.9734,-2.57536 -9.0864,-3.39273 z" style="color:#000000;font-style:normal;font-variant:normal;font-weight:normal;font-stretch:normal;font-size:medium;line-height:normal;font-family:sans-serif;font-variant-ligatures:normal;font-variant-position:normal;font-variant-caps:normal;font-variant-numeric:normal;font-variant-alternates:normal;font-feature-settings:normal;text-indent:0;text-align:start;text-decoration:none;text-decoration-line:none;text-decoration-style:solid;text-decoration-color:#000000;letter-spacing:normal;word-spacing:normal;text-transform:none;writing-mode:lr-tb;direction:ltr;text-orientation:mixed;dominant-baseline:auto;baseline-shift:baseline;text-anchor:start;white-space:normal;shape-padding:0;clip-rule:nonzero;display:inline;overflow:visible;visibility:visible;opacity:1;isolation:auto;mix-blend-mode:normal;color-interpolation:sRGB;color-interpolation-filters:linearRGB;solid-color:#000000;solid-opacity:1;vector-effect:none;fill:url(#linearGradient1524);fill-opacity:0.95631068;fill-rule:nonzero;stroke:none;stroke-width:0.79723412;stroke-linecap:square;stroke-linejoin:round;stroke-miterlimit:4;stroke-dasharray:none;stroke-dashoffset:0;stroke-opacity:1;paint-order:normal;color-rendering:auto;image-rendering:auto;shape-rendering:auto;text-rendering:auto;enable-background:accumulate"/>
    <path inkscape:connector-curvature="0" id="path1478" d="m -2195.1555,599.39179 c 7.1044,-23.28759 0.1622,-48.53494 -17.8921,-65.07581 l -0.2947,-0.26992 -0.5444,0.58197 0.2934,0.26949 c 17.8316,16.33696 24.6852,41.26824 17.669,64.26685 -7.0163,22.9986 -26.6775,40.05002 -50.6847,43.95612 -24.0072,3.9061 -48.1685,-6.01575 -62.2817,-25.57718 l -0.2321,-0.32284 -0.6539,0.46186 0.2339,0.3219 c 14.2897,19.80594 38.7561,29.8539 63.063,25.89904 24.3069,-3.95486 44.2199,-21.22389 51.3243,-44.51148 z" style="color:#000000;font-style:normal;font-variant:normal;font-weight:normal;font-stretch:normal;font-size:medium;line-height:normal;font-family:sans-serif;font-variant-ligatures:normal;font-variant-position:normal;font-variant-caps:normal;font-variant-numeric:normal;font-variant-alternates:normal;font-feature-settings:normal;text-indent:0;text-align:start;text-decoration:none;text-decoration-line:none;text-decoration-style:solid;text-decoration-color:#000000;letter-spacing:normal;word-spacing:normal;text-transform:none;writing-mode:lr-tb;direction:ltr;text-orientation:mixed;dominant-baseline:auto;baseline-shift:baseline;text-anchor:start;white-space:normal;shape-padding:0;clip-rule:nonzero;display:inline;overflow:visible;visibility:visible;opacity:1;isolation:auto;mix-blend-mode:normal;color-interpolation:sRGB;color-interpolation-filters:linearRGB;solid-color:#000000;solid-opacity:1;vector-effect:none;fill:url(#linearGradient1526);fill-opacity:0.95631068;fill-rule:nonzero;stroke:none;stroke-width:0.79723424;stroke-linecap:square;stroke-linejoin:round;stroke-miterlimit:4;stroke-dasharray:none;stroke-dashoffset:0;stroke-opacity:1;paint-order:normal;color-rendering:auto;image-rendering:auto;shape-rendering:auto;text-rendering:auto;enable-background:accumulate"/>
    <path inkscape:connector-curvature="0" id="path1480" d="m -2197.7627,598.80146 c 6.7935,-22.2694 0.154,-46.41288 -17.1118,-62.22941 l -0.2934,-0.26948 -0.5448,0.58334 0.2938,0.26811 c 17.0431,15.61262 23.5941,39.44005 16.8888,61.42045 -6.7054,21.9804 -25.497,38.2771 -48.4415,42.00935 -22.9444,3.73226 -46.0351,-5.75225 -59.5218,-24.44882 l -0.2322,-0.32284 -0.6539,0.46186 0.234,0.3219 c 13.6631,18.94111 37.059,28.55169 60.3032,24.77067 23.2442,-3.78101 42.2861,-20.29573 49.0796,-42.56513 z" style="color:#000000;font-style:normal;font-variant:normal;font-weight:normal;font-stretch:normal;font-size:medium;line-height:normal;font-family:sans-serif;font-variant-ligatures:normal;font-variant-position:normal;font-variant-caps:normal;font-variant-numeric:normal;font-variant-alternates:normal;font-feature-settings:normal;text-indent:0;text-align:start;text-decoration:none;text-decoration-line:none;text-decoration-style:solid;text-decoration-color:#000000;letter-spacing:normal;word-spacing:normal;text-transform:none;writing-mode:lr-tb;direction:ltr;text-orientation:mixed;dominant-baseline:auto;baseline-shift:baseline;text-anchor:start;white-space:normal;shape-padding:0;clip-rule:nonzero;display:inline;overflow:visible;visibility:visible;opacity:1;isolation:auto;mix-blend-mode:normal;color-interpolation:sRGB;color-interpolation-filters:linearRGB;solid-color:#000000;solid-opacity:1;vector-effect:none;fill:url(#linearGradient1528);fill-opacity:0.95631068;fill-rule:nonzero;stroke:none;stroke-width:0.79723424;stroke-linecap:square;stroke-linejoin:round;stroke-miterlimit:4;stroke-dasharray:none;stroke-dashoffset:0;stroke-opacity:1;paint-order:normal;color-rendering:auto;image-rendering:auto;shape-rendering:auto;text-rendering:auto;enable-background:accumulate"/>
    <path inkscape:connector-curvature="0" id="path1482" d="m -2315.9836,589.16909 c 4.5221,23.10368 22.2488,41.83968 45.8791,48.50794 l 0.3874,0.10988 0.2126,-0.76228 -0.3872,-0.10847 c -23.3479,-6.58858 -40.8409,-25.08717 -45.304,-47.8888 -4.463,-22.80163 4.8558,-46.06527 24.1402,-60.23304 19.2844,-14.16775 45.2777,-16.83831 67.2869,-6.9147 l 0.3671,0.16531 0.3269,-0.7196 -0.367,-0.16531 c -22.2793,-10.04535 -48.5789,-7.34275 -68.0979,6.99725 -19.5188,14.34 -28.9663,37.90815 -24.4441,61.01182 z" style="color:#000000;font-style:normal;font-variant:normal;font-weight:normal;font-stretch:normal;font-size:medium;line-height:normal;font-family:sans-serif;font-variant-ligatures:normal;font-variant-position:normal;font-variant-caps:normal;font-variant-numeric:normal;font-variant-alternates:normal;font-feature-settings:normal;text-indent:0;text-align:start;text-decoration:none;text-decoration-line:none;text-decoration-style:solid;text-decoration-color:#000000;letter-spacing:normal;word-spacing:normal;text-transform:none;writing-mode:lr-tb;direction:ltr;text-orientation:mixed;dominant-baseline:auto;baseline-shift:baseline;text-anchor:start;white-space:normal;shape-padding:0;clip-rule:nonzero;display:inline;overflow:visible;visibility:visible;opacity:1;isolation:auto;mix-blend-mode:normal;color-interpolation:sRGB;color-interpolation-filters:linearRGB;solid-color:#000000;solid-opacity:1;vector-effect:none;fill:url(#linearGradient1530);fill-opacity:0.95631068;fill-rule:nonzero;stroke:none;stroke-width:0.79723412;stroke-linecap:square;stroke-linejoin:round;stroke-miterlimit:4;stroke-dasharray:none;stroke-dashoffset:0;stroke-opacity:1;paint-order:normal;color-rendering:auto;image-rendering:auto;shape-rendering:auto;text-rendering:auto;enable-background:accumulate"/>
    <path inkscape:connector-curvature="0" id="path1484" d="m -2313.1704,588.73332 c 4.3004,22.16338 21.2632,40.14432 43.8879,46.53837 l 0.3875,0.10979 0.2128,-0.76098 -0.3859,-0.11 c -22.3417,-6.31409 -39.0725,-24.05774 -43.3144,-45.91911 -4.2419,-21.86138 4.7208,-44.14613 23.2104,-57.68115 18.4896,-13.53503 43.3748,-16.01936 64.3963,-6.42914 l 0.3658,0.16687 0.3302,-0.71874 -0.3657,-0.16687 c -21.2915,-9.7134 -46.4843,-7.19801 -65.2091,6.50925 -18.7249,13.70726 -27.8164,36.29833 -23.5158,58.46171 z" style="color:#000000;font-style:normal;font-variant:normal;font-weight:normal;font-stretch:normal;font-size:medium;line-height:normal;font-family:sans-serif;font-variant-ligatures:normal;font-variant-position:normal;font-variant-caps:normal;font-variant-numeric:normal;font-variant-alternates:normal;font-feature-settings:normal;text-indent:0;text-align:start;text-decoration:none;text-decoration-line:none;text-decoration-style:solid;text-decoration-color:#000000;letter-spacing:normal;word-spacing:normal;text-transform:none;writing-mode:lr-tb;direction:ltr;text-orientation:mixed;dominant-baseline:auto;baseline-shift:baseline;text-anchor:start;white-space:normal;shape-padding:0;clip-rule:nonzero;display:inline;overflow:visible;visibility:visible;opacity:1;isolation:auto;mix-blend-mode:normal;color-interpolation:sRGB;color-interpolation-filters:linearRGB;solid-color:#000000;solid-opacity:1;vector-effect:none;fill:url(#linearGradient1532);fill-opacity:0.95631068;fill-rule:nonzero;stroke:none;stroke-width:0.79723412;stroke-linecap:square;stroke-linejoin:round;stroke-miterlimit:4;stroke-dasharray:none;stroke-dashoffset:0;stroke-opacity:1;paint-order:normal;color-rendering:auto;image-rendering:auto;shape-rendering:auto;text-rendering:auto;enable-background:accumulate"/>
    <path style="font-style:normal;font-variant:normal;font-weight:bold;font-stretch:normal;font-size:46.54927826px;line-height:1;font-family:Raleway;-inkscape-font-specification:'Raleway Bold';font-variant-ligatures:normal;font-variant-caps:normal;font-variant-numeric:normal;font-feature-settings:normal;text-align:start;letter-spacing:0px;word-spacing:0px;writing-mode:lr-tb;text-anchor:start;fill:#e6d4f3;fill-opacity:0.86799999;stroke:none;stroke-width:0.56945282" d="m -2196.0344,521.71738 -10.4198,2.5327 v 16.16217 l 10.6129,-2.5814 v -2.7535 l -7.6418,1.85894 v -4.21142 l 6.4372,-1.56508 v -2.55055 l -6.4372,1.56507 v -3.89158 l 7.4487,-1.81185 z m -18.5439,4.66763 c -0.5455,0.0264 -1.1307,0.11606 -1.755,0.26788 l -5.5541,1.35078 v 16.16055 l 5.5541,-1.34915 c 1.1483,-0.27922 2.1823,-0.7204 3.1009,-1.32317 0.933,-0.62139 1.7295,-1.36236 2.3898,-2.22099 0.6603,-0.87377 1.1621,-1.84569 1.5067,-2.91584 0.3588,-1.08883 0.539,-2.24677 0.539,-3.47597 0,-1.10779 -0.1583,-2.1091 -0.4741,-3.00351 -0.3158,-0.90961 -0.789,-1.65262 -1.4206,-2.22748 -0.6316,-0.57485 -1.4213,-0.9598 -2.3687,-1.15432 -0.4665,-0.099 -0.9726,-0.13518 -1.518,-0.10878 z m -0.7371,2.87201 c 0.3194,-0.0131 0.618,0.0105 0.8978,0.0714 0.5742,0.11835 1.0558,0.36575 1.4433,0.74194 0.3876,0.37622 0.6823,0.86563 0.8832,1.46929 0.201,0.60368 0.3003,1.29282 0.3003,2.06675 0,0.75878 -0.099,1.48875 -0.3003,2.19014 -0.2009,0.70138 -0.4956,1.34239 -0.8832,1.92225 -0.3731,0.56115 -0.8464,1.04678 -1.4206,1.45955 -0.5597,0.40926 -1.2064,0.70356 -1.9384,0.88156 l -2.583,0.62831 v -10.65356 l 2.583,-0.6283 c 0.3588,-0.0872 0.6985,-0.13622 1.0179,-0.14937 z m -13.0531,0.32308 -12.7252,3.09281 v 2.75513 l 4.8868,-1.18842 v 13.40706 l 2.9499,-0.71761 v -13.40705 l 4.8885,-1.18842 z m -14.602,3.54903 -2.9711,0.72246 v 16.16218 l 2.9711,-0.72247 z m -5.9632,1.45143 -2.9499,0.71597 v 8.24101 c 0,0.66771 -0.066,1.33627 -0.1949,2.00505 -0.1148,0.6501 -0.322,1.25457 -0.6234,1.81348 -0.2871,0.55538 -0.6743,1.04387 -1.1624,1.46604 -0.4737,0.41868 -1.0631,0.7138 -1.7664,0.88482 v -0.002 c -0.6891,0.16782 -1.27,0.16502 -1.7437,-0.008 -0.4737,-0.18833 -0.861,-0.48711 -1.1624,-0.89943 -0.2871,-0.41581 -0.4959,-0.91911 -0.6251,-1.50987 -0.1148,-0.60944 -0.1721,-1.25561 -0.1721,-1.9385 v -8.241 l -2.971,0.72247 v 8.241 c 0,1.04709 0.1145,2.02807 0.3442,2.94345 0.2439,0.91187 0.6329,1.67474 1.1641,2.28917 0.531,0.59929 1.2198,1.02351 2.0667,1.27285 0.8612,0.23066 1.902,0.19762 3.122,-0.099 1.177,-0.2862 2.1875,-0.74429 3.0343,-1.37512 0.8469,-0.63081 1.5374,-1.3748 2.0684,-2.23235 0.5455,-0.86105 0.9396,-1.80739 1.1835,-2.83792 0.2585,-1.03405 0.3881,-2.10517 0.3881,-3.21295 z m -16.357,3.99873 -2.971,0.72247 v 10.58538 l -7.9667,-8.67124 -2.3038,0.56012 v 16.16218 l 2.9711,-0.72248 v -10.35645 l 7.8595,8.44557 2.4109,-0.58609 z m -25.2296,6.11257 -2.6268,0.63805 -5.8349,17.58114 3.057,-0.74358 1.3995,-4.3689 5.3398,-1.29882 1.4206,3.68378 3.057,-0.74358 z m -1.3134,3.89321 2.109,5.83819 -4.3056,1.04717 z m -15.266,0.138 -2.971,0.72247 v 16.16218 l 10.7656,-2.61874 v -2.7535 l -7.7946,1.89465 z" id="path1420" inkscape:connector-curvature="0"/>
    <path style="font-style:normal;font-variant:normal;font-weight:800;font-stretch:normal;font-size:82.17085266px;line-height:1;font-family:Raleway;-inkscape-font-specification:'Raleway Ultra-Bold';font-variant-ligatures:normal;font-variant-caps:normal;font-variant-numeric:normal;font-feature-settings:normal;text-align:start;letter-spacing:0px;word-spacing:0px;writing-mode:lr-tb;text-anchor:start;fill:#ffffff;fill-opacity:1;stroke:none;stroke-width:0.56945294" d="m -2204.9719,545.7293 c -0.9122,0.0142 -1.868,0.14303 -2.8688,0.38639 -1.951,0.47441 -3.7513,1.31399 -5.3982,2.51809 -1.647,1.17733 -3.0781,2.5828 -4.2942,4.21791 -1.1909,1.60219 -2.1278,3.35752 -2.812,5.26509 -0.6588,1.9014 -0.9887,3.78931 -0.9887,5.66447 0,1.84837 0.3163,3.56588 0.9497,5.15306 0.6589,1.58104 1.5717,2.91273 2.7373,3.9955 1.1656,1.05599 2.571,1.79913 4.2179,2.2291 1.6469,0.42998 3.4713,0.4023 5.473,-0.0844 1.951,-0.47439 3.7512,-1.31399 5.3982,-2.51809 1.6469,-1.20409 3.0643,-2.60761 4.2552,-4.20979 1.1909,-1.62897 2.1158,-3.3945 2.7746,-5.29593 0.6842,-1.90757 1.0261,-3.79746 1.0261,-5.67259 0,-1.79482 -0.3164,-3.48632 -0.9498,-5.07352 -0.6335,-1.58719 -1.5327,-2.92247 -2.6982,-4.00523 -1.1656,-1.08278 -2.571,-1.83972 -4.218,-2.26969 -0.8235,-0.21498 -1.692,-0.31453 -2.6041,-0.30035 z m -17.4918,4.10263 -18.32,4.45496 v 28.52855 l 6.2344,-1.51636 v -11.25103 l 9.957,-2.42067 v -5.34464 l -9.957,2.4223 v -6.14828 l 12.0856,-2.93859 z m 16.1523,1.9596 c 0.5005,-8.9e-4 0.9655,0.065 1.3963,0.20132 0.8868,0.23976 1.6341,0.68847 2.2421,1.34427 0.6081,0.62898 1.0646,1.42877 1.3686,2.39957 0.3041,0.94401 0.4562,1.96529 0.4562,3.06359 0,1.07151 -0.1521,2.16571 -0.4562,3.2844 -0.2786,1.08569 -0.7095,2.1158 -1.2923,3.08793 -0.5827,0.94533 -1.3179,1.78051 -2.2048,2.5051 -0.8867,0.72462 -1.9246,1.23167 -3.1155,1.52125 -1.1402,0.27725 -2.1541,0.28116 -3.0408,0.0146 -0.8869,-0.26656 -1.6341,-0.72749 -2.2421,-1.38325 -0.5828,-0.66193 -1.0272,-1.46367 -1.3313,-2.40769 -0.3041,-0.9708 -0.4546,-2.00586 -0.4546,-3.10417 0,-1.07151 0.1385,-2.14997 0.4172,-3.23568 0.3041,-1.11868 0.747,-2.15074 1.3297,-3.09607 0.6081,-0.95149 1.3433,-1.77284 2.2047,-2.4645 0.8868,-0.72463 1.9263,-1.23168 3.1172,-1.52124 0.5701,-0.13873 1.1052,-0.20826 1.6056,-0.20945 z m -39.6691,3.75846 -6.2327,1.51638 v 16.75476 l -12.5807,-13.69605 -4.8657,1.18192 v 28.53019 l 6.2343,-1.51637 v -16.31317 l 12.4281,13.29178 5.0167,-1.22089 z m -28.8777,7.02174 -6.2326,1.51474 v 28.53018 l 6.2326,-1.51636 z m -11.022,2.03753 -5.1304,1.24686 v 9.20213 l 5.1304,-1.24849 z m -17.6315,4.929 -6.2327,1.51638 v 28.52855 l 19.3086,-4.6936 v -5.78624 l -13.0759,3.17886 z" id="path1437" inkscape:connector-curvature="0"/>
    <path style="font-style:normal;font-variant:normal;font-weight:normal;font-stretch:normal;font-size:113.3420639px;line-height:1;font-family:'Intro Inline';-inkscape-font-specification:'Intro Inline, Normal';font-variant-ligatures:normal;font-variant-caps:normal;font-variant-numeric:normal;font-feature-settings:normal;text-align:start;letter-spacing:0px;word-spacing:0px;writing-mode:lr-tb;text-anchor:start;fill:none;fill-opacity:1;stroke:#ffffff;stroke-width:0.569453;stroke-opacity:1" d="m -2205.5386,579.19336 c -1.3393,0.0278 -2.7735,0.23037 -4.2763,0.59583 -8.0675,1.96186 -13.9347,7.54952 -13.9347,16.70119 0,8.20874 5.0289,11.81134 12.782,9.31578 l -7.806,15.93002 10.4248,-2.53432 10.6876,-21.4013 c 1.4669,-2.63077 1.9385,-5.46344 1.9385,-8.12573 0,-7.43573 -4.0123,-10.60156 -9.8159,-10.48147 z m -1.393,4.40462 c 3.9189,0.0494 6.6517,2.49734 6.6517,7.18409 0,1.99671 -0.4196,3.54071 -1.3103,5.36575 l -9.7962,20.24209 -0.6284,0.15261 c 2.8813,-5.9143 5.8144,-11.95093 8.6956,-17.86525 l -0.052,-0.0438 c -1.7287,1.69606 -4.0338,3.08964 -6.4437,3.67565 -5.2909,1.28668 -9.4814,-1.07782 -9.4814,-6.90159 0,-5.76831 4.1381,-10.15779 9.4814,-11.45721 1.0118,-0.24603 1.9791,-0.36369 2.8834,-0.3523 z m -0.1655,0.5179 c -0.8534,-0.009 -1.765,0.10113 -2.7178,0.33283 -5.029,1.22298 -9.0626,5.3655 -9.0626,10.8565 0,5.54646 4.0336,7.67162 9.0626,6.44863 5.0816,-1.23572 9.0105,-5.29706 9.0105,-10.84351 0,-4.46144 -2.5945,-6.7543 -6.2927,-6.79445 z m -23.9502,1.39137 -14.0923,3.42726 v 8.37576 l 4.9778,-1.21116 v 22.01985 l -5.7635,1.40111 v 8.43095 l 20.6934,-5.03292 v -8.42934 l -5.8154,1.4141 z m 22.8445,2.56029 c 2.0642,0.0246 2.9971,1.43412 2.9971,3.91269 0,3.16149 -1.4135,5.22506 -4.6092,6.00217 -3.0907,0.75162 -4.6108,-0.5986 -4.6108,-3.76007 0,-3.05055 1.5201,-5.19535 4.6108,-5.94697 0.5992,-0.14572 1.1358,-0.21349 1.6121,-0.20782 z m -27.1923,2.26969 v 30.83721 l 6.6532,-1.61703 v 0.44321 l -13.6734,3.32498 v -0.44322 l 6.5493,-1.59267 v -30.39399 l -5.8155,1.41408 v -0.44483 z m -25.1761,2.13494 c -1.2933,-0.0202 -2.667,0.14232 -4.0912,0.48867 -7.439,1.809 -13.6734,8.20697 -13.6734,16.69308 v 13.58889 c 0,8.48605 6.2344,11.85049 13.6734,10.04148 7.596,-1.84721 13.7772,-8.23135 13.7772,-16.71742 v -13.58889 c 0,-6.89496 -4.0813,-10.41806 -9.686,-10.50581 z m -1.237,4.3072 c 3.9143,0.0568 6.7847,2.50381 6.7847,7.3708 v 13.20086 c 0,5.93471 -4.3479,10.48712 -9.6389,11.77381 -5.1339,1.24847 -9.5349,-1.17634 -9.5349,-7.11104 v -13.20087 c 0,-5.99015 4.401,-10.44252 9.5349,-11.69099 0.992,-0.24125 1.9509,-0.35568 2.8542,-0.34257 z m -0.1558,0.51466 c -0.85,-0.0116 -1.7555,0.097 -2.6984,0.32633 -4.872,1.18477 -8.9586,5.34011 -8.9586,11.05295 v 13.20086 c 0,5.65738 4.0866,7.93539 8.9586,6.75062 5.0291,-1.22298 9.0105,-5.46375 9.0105,-11.12114 V 604.3044 c 0,-4.64167 -2.6291,-6.9602 -6.3121,-7.01037 z m -31.6117,3.20971 c -1.1232,-0.0196 -2.3465,0.13555 -3.6627,0.4903 -6.4958,1.74612 -11.8397,7.15014 -11.7349,15.49978 3.0385,-0.73888 4.8727,-1.18525 7.9634,-1.93687 0,-2.71773 1.5186,-4.1402 3.614,-4.64977 4.6101,-1.12107 3.1957,4.32457 1.3621,7.3773 l -13.7772,24.70515 v 1.49689 l 25.7735,-6.26679 v -8.87419 l -10.8955,2.64959 7.3854,-12.66835 c 4.7672,-8.97286 1.8339,-17.68598 -6.0281,-17.82304 z m 30.3988,1.13971 c 2.021,-0.006 3.4387,1.17599 3.4387,3.65454 v 13.19926 c 0,3.16147 -2.1478,5.29289 -4.9242,5.96807 -2.6718,0.64972 -4.7683,-0.44924 -4.7683,-3.61072 v -13.20086 c 0,-3.05056 2.0965,-5.169 4.7683,-5.81871 0.5206,-0.1266 1.0191,-0.19017 1.4855,-0.19158 z m -31.3957,3.2373 c 5.7792,0.20979 6.7708,6.47919 3.1496,12.8924 l -10.7915,19.15271 14.196,-3.45323 v 0.55524 c -13.0965,3.18486 -2.5144,0.6117 -15.0874,3.66917 l 11.2104,-20.08786 c 3.8768,-6.93286 2.3047,-13.65033 -5.4484,-11.93127 -2.9862,0.6152 -5.6566,2.65296 -6.809,6.09471 l -0.5764,0.13962 c 1.2048,-3.78724 4.0326,-5.97293 7.3854,-6.73276 1.0215,-0.23455 1.9457,-0.32869 2.7713,-0.29873 z" id="path1450" inkscape:connector-curvature="0"/>
  </g>
</svg>